<svg width="88" height="16" viewBox="0 0 88 16" fill="none" xmlns="http://www.w3.org/2000/svg">
<path d="M6.84466 2.30103C7.37637 1.45565 8.62103 1.45565 9.15274 2.30103L10.4387 4.34552C10.6257 4.64296 10.9229 4.85641 11.2669 4.94038L13.6313 5.51755C14.6089 5.75621 14.9935 6.92637 14.3445 7.6875L12.7749 9.52824C12.5465 9.79604 12.433 10.1414 12.4585 10.4907L12.6339 12.8919C12.7064 13.8848 11.6994 14.608 10.7666 14.233L8.51058 13.3262C8.18238 13.1943 7.81502 13.1943 7.48681 13.3262L5.23082 14.2331C4.29798 14.608 3.29104 13.8848 3.36354 12.8919L3.53887 10.4907C3.56438 10.1414 3.45086 9.79604 3.22251 9.52824L1.65289 7.6875C1.00387 6.92637 1.38849 5.75621 2.36613 5.51755L4.73049 4.94038C5.07446 4.85641 5.37166 4.64296 5.55874 4.34552L6.84466 2.30103Z" fill="#FFA200"/>
<path d="M24.8447 2.30103C25.3764 1.45565 26.621 1.45565 27.1527 2.30103L28.4387 4.34552C28.6257 4.64296 28.9229 4.85641 29.2669 4.94038L31.6313 5.51755C32.6089 5.75621 32.9935 6.92637 32.3445 7.6875L30.7749 9.52824C30.5465 9.79604 30.433 10.1414 30.4585 10.4907L30.6339 12.8919C30.7064 13.8848 29.6994 14.608 28.7666 14.233L26.5106 13.3262C26.1824 13.1943 25.815 13.1943 25.4868 13.3262L23.2308 14.2331C22.298 14.608 21.291 13.8848 21.3635 12.8919L21.5389 10.4907C21.5644 10.1414 21.4509 9.79604 21.2225 9.52824L19.6529 7.6875C19.0039 6.92637 19.3885 5.75621 20.3661 5.51755L22.7305 4.94038C23.0745 4.85641 23.3717 4.64296 23.5587 4.34552L24.8447 2.30103Z" fill="#FFA200"/>
<path d="M42.8447 2.30103C43.3764 1.45565 44.621 1.45565 45.1527 2.30103L46.4387 4.34552C46.6257 4.64296 46.9229 4.85641 47.2669 4.94038L49.6313 5.51755C50.6089 5.75621 50.9935 6.92637 50.3445 7.6875L48.7749 9.52824C48.5465 9.79604 48.433 10.1414 48.4585 10.4907L48.6339 12.8919C48.7064 13.8848 47.6994 14.608 46.7666 14.233L44.5106 13.3262C44.1824 13.1943 43.815 13.1943 43.4868 13.3262L41.2308 14.2331C40.298 14.608 39.291 13.8848 39.3635 12.8919L39.5389 10.4907C39.5644 10.1414 39.4509 9.79604 39.2225 9.52824L37.6529 7.6875C37.0039 6.92637 37.3885 5.75621 38.3661 5.51755L40.7305 4.94038C41.0745 4.85641 41.3717 4.64296 41.5587 4.34552L42.8447 2.30103Z" fill="#FFA200"/>
<path d="M60.8447 2.30103C61.3764 1.45565 62.621 1.45565 63.1527 2.30103L64.4387 4.34552C64.6257 4.64296 64.9229 4.85641 65.2669 4.94038L67.6313 5.51755C68.6089 5.75621 68.9935 6.92637 68.3445 7.6875L66.7749 9.52824C66.5465 9.79604 66.433 10.1414 66.4585 10.4907L66.6339 12.8919C66.7064 13.8848 65.6994 14.608 64.7666 14.233L62.5106 13.3262C62.1824 13.1943 61.815 13.1943 61.4868 13.3262L59.2308 14.2331C58.298 14.608 57.291 13.8848 57.3635 12.8919L57.5389 10.4907C57.5644 10.1414 57.4509 9.79604 57.2225 9.52824L55.6529 7.6875C55.0039 6.92637 55.3885 5.75621 56.3661 5.51755L58.7305 4.94038C59.0745 4.85641 59.3717 4.64296 59.5587 4.34552L60.8447 2.30103Z" fill="#FFA200"/>
<path opacity="0.3" d="M78.8447 2.302C79.3764 1.45662 80.621 1.45662 81.1527 2.302L82.4387 4.3465C82.6257 4.64394 82.9229 4.85739 83.2669 4.94136L85.6313 5.51853C86.6089 5.75718 86.9935 6.92735 86.3445 7.68848L84.7749 9.52922C84.5465 9.79701 84.433 10.1424 84.4585 10.4917L84.6339 12.8929C84.7064 13.8858 83.6994 14.609 82.7666 14.234L80.5106 13.3272C80.1824 13.1952 79.815 13.1952 79.4868 13.3272L77.2308 14.234C76.298 14.609 75.291 13.8858 75.3635 12.8929L75.5389 10.4917C75.5644 10.1424 75.4509 9.79701 75.2225 9.52922L73.6529 7.68848C73.0039 6.92735 73.3885 5.75718 74.3661 5.51853L76.7305 4.94136C77.0745 4.85739 77.3717 4.64394 77.5587 4.3465L78.8447 2.302Z" fill="#FFA100"/>
<mask id="mask0_2710_83004" style="mask-type:alpha" maskUnits="userSpaceOnUse" x="73" y="1" width="14" height="14">
<path d="M78.8447 2.302C79.3764 1.45662 80.621 1.45662 81.1527 2.302L82.4387 4.3465C82.6257 4.64394 82.9229 4.85739 83.2669 4.94136L85.6313 5.51853C86.6089 5.75718 86.9935 6.92735 86.3445 7.68848L84.7749 9.52922C84.5465 9.79701 84.433 10.1424 84.4585 10.4917L84.6339 12.8929C84.7064 13.8858 83.6994 14.609 82.7666 14.234L80.5106 13.3272C80.1824 13.1952 79.815 13.1952 79.4868 13.3272L77.2308 14.234C76.298 14.609 75.291 13.8858 75.3635 12.8929L75.5389 10.4917C75.5644 10.1424 75.4509 9.79701 75.2225 9.52922L73.6529 7.68848C73.0039 6.92735 73.3885 5.75718 74.3661 5.51853L76.7305 4.94136C77.0745 4.85739 77.3717 4.64394 77.5587 4.3465L78.8447 2.302Z" fill="#FFA200"/>
</mask>
<g mask="url(#mask0_2710_83004)">
<rect x="73" width="7" height="16" fill="#FFA100"/>
</g>
</svg>
