<svg width="28" height="24" viewBox="0 0 28 24" fill="none" xmlns="http://www.w3.org/2000/svg">
<path fill-rule="evenodd" clip-rule="evenodd" d="M20.2981 4C20.2981 5.10457 21.3079 6 22.5534 6C23.799 6 24.8087 5.10457 24.8087 4C24.8087 2.89543 23.799 2 22.5534 2C21.3079 2 20.2981 2.89543 20.2981 4ZM22.5534 14C21.3079 14 20.2981 13.1046 20.2981 12C20.2981 10.8954 21.3079 10 22.5534 10C23.799 10 24.8087 10.8954 24.8087 12C24.8087 13.1046 23.799 14 22.5534 14ZM22.5534 22C21.3079 22 20.2981 21.1046 20.2981 20C20.2981 18.8954 21.3079 18 22.5534 18C23.799 18 24.8087 18.8954 24.8087 20C24.8087 21.1046 23.799 22 22.5534 22ZM13.5323 22C12.2867 22 11.277 21.1046 11.277 20C11.277 18.8954 12.2867 18 13.5323 18C14.7778 18 15.7876 18.8954 15.7876 20C15.7876 21.1046 14.7778 22 13.5323 22ZM11.277 12C11.277 13.1046 12.2867 14 13.5323 14C14.7778 14 15.7876 13.1046 15.7876 12C15.7876 10.8954 14.7778 10 13.5323 10C12.2867 10 11.277 10.8954 11.277 12ZM13.5323 6C12.2867 6 11.277 5.10457 11.277 4C11.277 2.89543 12.2867 2 13.5323 2C14.7778 2 15.7876 2.89543 15.7876 4C15.7876 5.10457 14.7778 6 13.5323 6ZM2.25586 20C2.25586 21.1046 3.26559 22 4.51115 22C5.75671 22 6.76643 21.1046 6.76643 20C6.76643 18.8954 5.75671 18 4.51115 18C3.26559 18 2.25586 18.8954 2.25586 20ZM4.51115 14C3.26559 14 2.25586 13.1046 2.25586 12C2.25586 10.8954 3.26559 10 4.51115 10C5.75671 10 6.76643 10.8954 6.76643 12C6.76643 13.1046 5.75671 14 4.51115 14ZM2.25586 4C2.25586 5.10457 3.26559 6 4.51115 6C5.75671 6 6.76643 5.10457 6.76643 4C6.76643 2.89543 5.75671 2 4.51115 2C3.26559 2 2.25586 2.89543 2.25586 4Z" fill="#203686"/>
</svg>
